<svg xmlns="http://www.w3.org/2000/svg" xmlns:svg="http://www.w3.org/2000/svg" id="svg4" version="1.1" viewBox="0 0 512 512"><metadata id="metadata10"/><path style="fill:red;stroke:#000;stroke-width:1px;stroke-linecap:butt;stroke-linejoin:miter;stroke-opacity:1" id="path3715" d="m -1277.8738,312.57195 -56.7603,46.0218 7.6703,408.0606 58.1253,33.7493 150.5072,-7.6703 -9.2044,-148.804 -46.0219,-1.5341 -7.6703,-84.3734 64.4306,-6.1362 4.6022,-90.5097 69.0328,-59.8284 102.78219,10.7384 -3.06812,84.3734 -85.90747,9.2044 15.3406,53.6922 73.63499,4.6022 -27.61311,84.3734 -56.76028,7.6703 1.534,142.6678 134.99751,-4.6022 44.4878,-52.1581 -12.2725,-389.6518 -46.02186,-36.8175 z"/><path id="path2" d="m75 512h167v-182h-60v-60h60v-75c0-41.355469 33.644531-75 75-75h75v60h-60c-16.542969 0-30 13.457031-30 30v60h87.292969l-10 60h-77.292969v182h135c41.355469 0 75-33.644531 75-75v-362c0-41.355469-33.644531-75-75-75h-362c-41.355469 0-75 33.644531-75 75v362c0 41.355469 33.644531 75 75 75zm-45-437c0-24.8125 20.1875-45 45-45h362c24.8125 0 45 20.1875 45 45v362c0 24.8125-20.1875 45-45 45h-105v-122h72.707031l20-120h-92.707031v-30h90v-120h-105c-57.898438 0-105 47.101562-105 105v45h-60v120h60v122h-137c-24.8125 0-45-20.1875-45-45zm0 0" style="stroke:#313131;stroke-opacity:1;stroke-width:10;stroke-miterlimit:4;stroke-dasharray:none;fill:#313131;fill-opacity:1"/></svg>